%TF.GenerationSoftware,KiCad,Pcbnew,8.0.4*%
%TF.CreationDate,2024-09-21T22:18:03+01:00*%
%TF.ProjectId,FlipperBoard,466c6970-7065-4724-926f-6172642e6b69,rev?*%
%TF.SameCoordinates,Original*%
%TF.FileFunction,Copper,L2,Bot*%
%TF.FilePolarity,Positive*%
%FSLAX46Y46*%
G04 Gerber Fmt 4.6, Leading zero omitted, Abs format (unit mm)*
G04 Created by KiCad (PCBNEW 8.0.4) date 2024-09-21 22:18:03*
%MOMM*%
%LPD*%
G01*
G04 APERTURE LIST*
%TA.AperFunction,ComponentPad*%
%ADD10O,1.700000X1.700000*%
%TD*%
%TA.AperFunction,ComponentPad*%
%ADD11R,1.700000X1.700000*%
%TD*%
G04 APERTURE END LIST*
D10*
%TO.P,J2,6,VDD*%
%TO.N,+3V3*%
X118000000Y-100000000D03*
%TO.P,J2,5,RST*%
%TO.N,Net-(J1-C1)*%
X120540000Y-100000000D03*
%TO.P,J2,4,RXD*%
%TO.N,Net-(J1-TX)*%
X123080000Y-100000000D03*
%TO.P,J2,3,TXD*%
%TO.N,Net-(J1-RX)*%
X125620000Y-100000000D03*
%TO.P,J2,2*%
%TO.N,unconnected-(J2-Pad2)*%
X128160000Y-100000000D03*
D11*
%TO.P,J2,1,GND*%
%TO.N,GND*%
X130700000Y-100000000D03*
%TD*%
%TO.P,J1,1,GND*%
%TO.N,GND*%
X135820000Y-123000000D03*
D10*
%TO.P,J1,2,1W*%
%TO.N,unconnected-(J1-1W-Pad2)*%
X133280000Y-123000000D03*
%TO.P,J1,3,C0*%
%TO.N,+3V3*%
X130740000Y-123000000D03*
%TO.P,J1,4,C1*%
%TO.N,Net-(J1-C1)*%
X128200000Y-123000000D03*
%TO.P,J1,5,RX*%
%TO.N,Net-(J1-RX)*%
X125660000Y-123000000D03*
%TO.P,J1,6,TX*%
%TO.N,Net-(J1-TX)*%
X123120000Y-123000000D03*
%TO.P,J1,7,SIO*%
%TO.N,unconnected-(J1-SIO-Pad7)*%
X120580000Y-123000000D03*
%TO.P,J1,8,GND*%
%TO.N,GND*%
X118040000Y-123000000D03*
%TO.P,J1,9,SWC*%
%TO.N,unconnected-(J1-SWC-Pad9)*%
X115500000Y-123000000D03*
%TO.P,J1,10,3v3*%
%TO.N,+3V3*%
X112960000Y-123000000D03*
%TD*%
%TA.AperFunction,Conductor*%
%TO.N,GND*%
G36*
X137442539Y-96520185D02*
G01*
X137488294Y-96572989D01*
X137499500Y-96624500D01*
X137499500Y-125375500D01*
X137479815Y-125442539D01*
X137427011Y-125488294D01*
X137375500Y-125499500D01*
X111624500Y-125499500D01*
X111557461Y-125479815D01*
X111511706Y-125427011D01*
X111500500Y-125375500D01*
X111500500Y-123624975D01*
X111520185Y-123557936D01*
X111572989Y-123512181D01*
X111642147Y-123502237D01*
X111705703Y-123531262D01*
X111736882Y-123572571D01*
X111785963Y-123677826D01*
X111785967Y-123677834D01*
X111894281Y-123832521D01*
X111921505Y-123871401D01*
X112088599Y-124038495D01*
X112165135Y-124092086D01*
X112282165Y-124174032D01*
X112282167Y-124174033D01*
X112282170Y-124174035D01*
X112496337Y-124273903D01*
X112724592Y-124335063D01*
X112895319Y-124350000D01*
X112959999Y-124355659D01*
X112960000Y-124355659D01*
X112960001Y-124355659D01*
X113024681Y-124350000D01*
X113195408Y-124335063D01*
X113423663Y-124273903D01*
X113637830Y-124174035D01*
X113831401Y-124038495D01*
X113998495Y-123871401D01*
X114128425Y-123685842D01*
X114183002Y-123642217D01*
X114252500Y-123635023D01*
X114314855Y-123666546D01*
X114331575Y-123685842D01*
X114461500Y-123871395D01*
X114461505Y-123871401D01*
X114628599Y-124038495D01*
X114705135Y-124092086D01*
X114822165Y-124174032D01*
X114822167Y-124174033D01*
X114822170Y-124174035D01*
X115036337Y-124273903D01*
X115264592Y-124335063D01*
X115435319Y-124350000D01*
X115499999Y-124355659D01*
X115500000Y-124355659D01*
X115500001Y-124355659D01*
X115564681Y-124350000D01*
X115735408Y-124335063D01*
X115963663Y-124273903D01*
X116177830Y-124174035D01*
X116371401Y-124038495D01*
X116538495Y-123871401D01*
X116668730Y-123685405D01*
X116723307Y-123641781D01*
X116792805Y-123634587D01*
X116855160Y-123666110D01*
X116871879Y-123685405D01*
X117001890Y-123871078D01*
X117168917Y-124038105D01*
X117362421Y-124173600D01*
X117576507Y-124273429D01*
X117576516Y-124273433D01*
X117790000Y-124330634D01*
X117790000Y-123433012D01*
X117847007Y-123465925D01*
X117974174Y-123500000D01*
X118105826Y-123500000D01*
X118232993Y-123465925D01*
X118290000Y-123433012D01*
X118290000Y-124330633D01*
X118503483Y-124273433D01*
X118503492Y-124273429D01*
X118717578Y-124173600D01*
X118911082Y-124038105D01*
X119078105Y-123871082D01*
X119208119Y-123685405D01*
X119262696Y-123641781D01*
X119332195Y-123634588D01*
X119394549Y-123666110D01*
X119411269Y-123685405D01*
X119541505Y-123871401D01*
X119708599Y-124038495D01*
X119785135Y-124092086D01*
X119902165Y-124174032D01*
X119902167Y-124174033D01*
X119902170Y-124174035D01*
X120116337Y-124273903D01*
X120344592Y-124335063D01*
X120515319Y-124350000D01*
X120579999Y-124355659D01*
X120580000Y-124355659D01*
X120580001Y-124355659D01*
X120644681Y-124350000D01*
X120815408Y-124335063D01*
X121043663Y-124273903D01*
X121257830Y-124174035D01*
X121451401Y-124038495D01*
X121618495Y-123871401D01*
X121748425Y-123685842D01*
X121803002Y-123642217D01*
X121872500Y-123635023D01*
X121934855Y-123666546D01*
X121951575Y-123685842D01*
X122081500Y-123871395D01*
X122081505Y-123871401D01*
X122248599Y-124038495D01*
X122325135Y-124092086D01*
X122442165Y-124174032D01*
X122442167Y-124174033D01*
X122442170Y-124174035D01*
X122656337Y-124273903D01*
X122884592Y-124335063D01*
X123055319Y-124350000D01*
X123119999Y-124355659D01*
X123120000Y-124355659D01*
X123120001Y-124355659D01*
X123184681Y-124350000D01*
X123355408Y-124335063D01*
X123583663Y-124273903D01*
X123797830Y-124174035D01*
X123991401Y-124038495D01*
X124158495Y-123871401D01*
X124288425Y-123685842D01*
X124343002Y-123642217D01*
X124412500Y-123635023D01*
X124474855Y-123666546D01*
X124491575Y-123685842D01*
X124621500Y-123871395D01*
X124621505Y-123871401D01*
X124788599Y-124038495D01*
X124865135Y-124092086D01*
X124982165Y-124174032D01*
X124982167Y-124174033D01*
X124982170Y-124174035D01*
X125196337Y-124273903D01*
X125424592Y-124335063D01*
X125595319Y-124350000D01*
X125659999Y-124355659D01*
X125660000Y-124355659D01*
X125660001Y-124355659D01*
X125724681Y-124350000D01*
X125895408Y-124335063D01*
X126123663Y-124273903D01*
X126337830Y-124174035D01*
X126531401Y-124038495D01*
X126698495Y-123871401D01*
X126828425Y-123685842D01*
X126883002Y-123642217D01*
X126952500Y-123635023D01*
X127014855Y-123666546D01*
X127031575Y-123685842D01*
X127161500Y-123871395D01*
X127161505Y-123871401D01*
X127328599Y-124038495D01*
X127405135Y-124092086D01*
X127522165Y-124174032D01*
X127522167Y-124174033D01*
X127522170Y-124174035D01*
X127736337Y-124273903D01*
X127964592Y-124335063D01*
X128135319Y-124350000D01*
X128199999Y-124355659D01*
X128200000Y-124355659D01*
X128200001Y-124355659D01*
X128264681Y-124350000D01*
X128435408Y-124335063D01*
X128663663Y-124273903D01*
X128877830Y-124174035D01*
X129071401Y-124038495D01*
X129238495Y-123871401D01*
X129368425Y-123685842D01*
X129423002Y-123642217D01*
X129492500Y-123635023D01*
X129554855Y-123666546D01*
X129571575Y-123685842D01*
X129701500Y-123871395D01*
X129701505Y-123871401D01*
X129868599Y-124038495D01*
X129945135Y-124092086D01*
X130062165Y-124174032D01*
X130062167Y-124174033D01*
X130062170Y-124174035D01*
X130276337Y-124273903D01*
X130504592Y-124335063D01*
X130675319Y-124350000D01*
X130739999Y-124355659D01*
X130740000Y-124355659D01*
X130740001Y-124355659D01*
X130804681Y-124350000D01*
X130975408Y-124335063D01*
X131203663Y-124273903D01*
X131417830Y-124174035D01*
X131611401Y-124038495D01*
X131778495Y-123871401D01*
X131908425Y-123685842D01*
X131963002Y-123642217D01*
X132032500Y-123635023D01*
X132094855Y-123666546D01*
X132111575Y-123685842D01*
X132241500Y-123871395D01*
X132241505Y-123871401D01*
X132408599Y-124038495D01*
X132485135Y-124092086D01*
X132602165Y-124174032D01*
X132602167Y-124174033D01*
X132602170Y-124174035D01*
X132816337Y-124273903D01*
X133044592Y-124335063D01*
X133215319Y-124350000D01*
X133279999Y-124355659D01*
X133280000Y-124355659D01*
X133280001Y-124355659D01*
X133344681Y-124350000D01*
X133515408Y-124335063D01*
X133743663Y-124273903D01*
X133957830Y-124174035D01*
X134151401Y-124038495D01*
X134273717Y-123916178D01*
X134335036Y-123882696D01*
X134404728Y-123887680D01*
X134460662Y-123929551D01*
X134477577Y-123960528D01*
X134526646Y-124092088D01*
X134526649Y-124092093D01*
X134612809Y-124207187D01*
X134612812Y-124207190D01*
X134727906Y-124293350D01*
X134727913Y-124293354D01*
X134862620Y-124343596D01*
X134862627Y-124343598D01*
X134922155Y-124349999D01*
X134922172Y-124350000D01*
X135570000Y-124350000D01*
X135570000Y-123433012D01*
X135627007Y-123465925D01*
X135754174Y-123500000D01*
X135885826Y-123500000D01*
X136012993Y-123465925D01*
X136070000Y-123433012D01*
X136070000Y-124350000D01*
X136717828Y-124350000D01*
X136717844Y-124349999D01*
X136777372Y-124343598D01*
X136777379Y-124343596D01*
X136912086Y-124293354D01*
X136912093Y-124293350D01*
X137027187Y-124207190D01*
X137027190Y-124207187D01*
X137113350Y-124092093D01*
X137113354Y-124092086D01*
X137163596Y-123957379D01*
X137163598Y-123957372D01*
X137169999Y-123897844D01*
X137170000Y-123897827D01*
X137170000Y-123250000D01*
X136253012Y-123250000D01*
X136285925Y-123192993D01*
X136320000Y-123065826D01*
X136320000Y-122934174D01*
X136285925Y-122807007D01*
X136253012Y-122750000D01*
X137170000Y-122750000D01*
X137170000Y-122102172D01*
X137169999Y-122102155D01*
X137163598Y-122042627D01*
X137163596Y-122042620D01*
X137113354Y-121907913D01*
X137113350Y-121907906D01*
X137027190Y-121792812D01*
X137027187Y-121792809D01*
X136912093Y-121706649D01*
X136912086Y-121706645D01*
X136777379Y-121656403D01*
X136777372Y-121656401D01*
X136717844Y-121650000D01*
X136070000Y-121650000D01*
X136070000Y-122566988D01*
X136012993Y-122534075D01*
X135885826Y-122500000D01*
X135754174Y-122500000D01*
X135627007Y-122534075D01*
X135570000Y-122566988D01*
X135570000Y-121650000D01*
X134922155Y-121650000D01*
X134862627Y-121656401D01*
X134862620Y-121656403D01*
X134727913Y-121706645D01*
X134727906Y-121706649D01*
X134612812Y-121792809D01*
X134612809Y-121792812D01*
X134526649Y-121907906D01*
X134526645Y-121907913D01*
X134477578Y-122039470D01*
X134435707Y-122095404D01*
X134370242Y-122119821D01*
X134301969Y-122104969D01*
X134273715Y-122083819D01*
X134229366Y-122039470D01*
X134151401Y-121961505D01*
X134151397Y-121961502D01*
X134151396Y-121961501D01*
X133957834Y-121825967D01*
X133957830Y-121825965D01*
X133886727Y-121792809D01*
X133743663Y-121726097D01*
X133743659Y-121726096D01*
X133743655Y-121726094D01*
X133515413Y-121664938D01*
X133515403Y-121664936D01*
X133280001Y-121644341D01*
X133279999Y-121644341D01*
X133044596Y-121664936D01*
X133044586Y-121664938D01*
X132816344Y-121726094D01*
X132816335Y-121726098D01*
X132602171Y-121825964D01*
X132602169Y-121825965D01*
X132408597Y-121961505D01*
X132241505Y-122128597D01*
X132111575Y-122314158D01*
X132056998Y-122357783D01*
X131987500Y-122364977D01*
X131925145Y-122333454D01*
X131908425Y-122314158D01*
X131778494Y-122128597D01*
X131611402Y-121961506D01*
X131611395Y-121961501D01*
X131417834Y-121825967D01*
X131417830Y-121825965D01*
X131346727Y-121792809D01*
X131203663Y-121726097D01*
X131203659Y-121726096D01*
X131203655Y-121726094D01*
X130975413Y-121664938D01*
X130975403Y-121664936D01*
X130740001Y-121644341D01*
X130739999Y-121644341D01*
X130504596Y-121664936D01*
X130504586Y-121664938D01*
X130276344Y-121726094D01*
X130276335Y-121726098D01*
X130062171Y-121825964D01*
X130062169Y-121825965D01*
X129868597Y-121961505D01*
X129701505Y-122128597D01*
X129571575Y-122314158D01*
X129516998Y-122357783D01*
X129447500Y-122364977D01*
X129385145Y-122333454D01*
X129368425Y-122314158D01*
X129238494Y-122128597D01*
X129071402Y-121961506D01*
X129071395Y-121961501D01*
X128877834Y-121825967D01*
X128877830Y-121825965D01*
X128806727Y-121792809D01*
X128663663Y-121726097D01*
X128663659Y-121726096D01*
X128663655Y-121726094D01*
X128435413Y-121664938D01*
X128435403Y-121664936D01*
X128200001Y-121644341D01*
X128199999Y-121644341D01*
X127964596Y-121664936D01*
X127964586Y-121664938D01*
X127736344Y-121726094D01*
X127736335Y-121726098D01*
X127522171Y-121825964D01*
X127522169Y-121825965D01*
X127328597Y-121961505D01*
X127161505Y-122128597D01*
X127031575Y-122314158D01*
X126976998Y-122357783D01*
X126907500Y-122364977D01*
X126845145Y-122333454D01*
X126828425Y-122314158D01*
X126698494Y-122128597D01*
X126531402Y-121961506D01*
X126531395Y-121961501D01*
X126337834Y-121825967D01*
X126337830Y-121825965D01*
X126266727Y-121792809D01*
X126123663Y-121726097D01*
X126123659Y-121726096D01*
X126123655Y-121726094D01*
X125895413Y-121664938D01*
X125895403Y-121664936D01*
X125660001Y-121644341D01*
X125659999Y-121644341D01*
X125424596Y-121664936D01*
X125424586Y-121664938D01*
X125196344Y-121726094D01*
X125196335Y-121726098D01*
X124982171Y-121825964D01*
X124982169Y-121825965D01*
X124788597Y-121961505D01*
X124621505Y-122128597D01*
X124491575Y-122314158D01*
X124436998Y-122357783D01*
X124367500Y-122364977D01*
X124305145Y-122333454D01*
X124288425Y-122314158D01*
X124158494Y-122128597D01*
X123991402Y-121961506D01*
X123991395Y-121961501D01*
X123797834Y-121825967D01*
X123797830Y-121825965D01*
X123726727Y-121792809D01*
X123583663Y-121726097D01*
X123583659Y-121726096D01*
X123583655Y-121726094D01*
X123355413Y-121664938D01*
X123355403Y-121664936D01*
X123120001Y-121644341D01*
X123119999Y-121644341D01*
X122884596Y-121664936D01*
X122884586Y-121664938D01*
X122656344Y-121726094D01*
X122656335Y-121726098D01*
X122442171Y-121825964D01*
X122442169Y-121825965D01*
X122248597Y-121961505D01*
X122081505Y-122128597D01*
X121951575Y-122314158D01*
X121896998Y-122357783D01*
X121827500Y-122364977D01*
X121765145Y-122333454D01*
X121748425Y-122314158D01*
X121618494Y-122128597D01*
X121451402Y-121961506D01*
X121451395Y-121961501D01*
X121257834Y-121825967D01*
X121257830Y-121825965D01*
X121186727Y-121792809D01*
X121043663Y-121726097D01*
X121043659Y-121726096D01*
X121043655Y-121726094D01*
X120815413Y-121664938D01*
X120815403Y-121664936D01*
X120580001Y-121644341D01*
X120579999Y-121644341D01*
X120344596Y-121664936D01*
X120344586Y-121664938D01*
X120116344Y-121726094D01*
X120116335Y-121726098D01*
X119902171Y-121825964D01*
X119902169Y-121825965D01*
X119708597Y-121961505D01*
X119541508Y-122128594D01*
X119411269Y-122314595D01*
X119356692Y-122358219D01*
X119287193Y-122365412D01*
X119224839Y-122333890D01*
X119208119Y-122314594D01*
X119078113Y-122128926D01*
X119078108Y-122128920D01*
X118911082Y-121961894D01*
X118717578Y-121826399D01*
X118503492Y-121726570D01*
X118503486Y-121726567D01*
X118290000Y-121669364D01*
X118290000Y-122566988D01*
X118232993Y-122534075D01*
X118105826Y-122500000D01*
X117974174Y-122500000D01*
X117847007Y-122534075D01*
X117790000Y-122566988D01*
X117790000Y-121669364D01*
X117789999Y-121669364D01*
X117576513Y-121726567D01*
X117576507Y-121726570D01*
X117362422Y-121826399D01*
X117362420Y-121826400D01*
X117168926Y-121961886D01*
X117168920Y-121961891D01*
X117001891Y-122128920D01*
X117001890Y-122128922D01*
X116871880Y-122314595D01*
X116817303Y-122358219D01*
X116747804Y-122365412D01*
X116685450Y-122333890D01*
X116668730Y-122314594D01*
X116538494Y-122128597D01*
X116371402Y-121961506D01*
X116371395Y-121961501D01*
X116177834Y-121825967D01*
X116177830Y-121825965D01*
X116106727Y-121792809D01*
X115963663Y-121726097D01*
X115963659Y-121726096D01*
X115963655Y-121726094D01*
X115735413Y-121664938D01*
X115735403Y-121664936D01*
X115500001Y-121644341D01*
X115499999Y-121644341D01*
X115264596Y-121664936D01*
X115264586Y-121664938D01*
X115036344Y-121726094D01*
X115036335Y-121726098D01*
X114822171Y-121825964D01*
X114822169Y-121825965D01*
X114628597Y-121961505D01*
X114461505Y-122128597D01*
X114331575Y-122314158D01*
X114276998Y-122357783D01*
X114207500Y-122364977D01*
X114145145Y-122333454D01*
X114128425Y-122314158D01*
X113998494Y-122128597D01*
X113831402Y-121961506D01*
X113831395Y-121961501D01*
X113637834Y-121825967D01*
X113637830Y-121825965D01*
X113566727Y-121792809D01*
X113423663Y-121726097D01*
X113423659Y-121726096D01*
X113423655Y-121726094D01*
X113195413Y-121664938D01*
X113195403Y-121664936D01*
X112960001Y-121644341D01*
X112959999Y-121644341D01*
X112724596Y-121664936D01*
X112724586Y-121664938D01*
X112496344Y-121726094D01*
X112496335Y-121726098D01*
X112282171Y-121825964D01*
X112282169Y-121825965D01*
X112088597Y-121961505D01*
X111921505Y-122128597D01*
X111785965Y-122322169D01*
X111785964Y-122322171D01*
X111736882Y-122427429D01*
X111690710Y-122479868D01*
X111623516Y-122499020D01*
X111556635Y-122478804D01*
X111511300Y-122425639D01*
X111500500Y-122375024D01*
X111500500Y-99999999D01*
X116644341Y-99999999D01*
X116644341Y-100000000D01*
X116664936Y-100235403D01*
X116664938Y-100235413D01*
X116726094Y-100463655D01*
X116726096Y-100463659D01*
X116726097Y-100463663D01*
X116806004Y-100635023D01*
X116825965Y-100677830D01*
X116825967Y-100677834D01*
X116934281Y-100832521D01*
X116961505Y-100871401D01*
X117128599Y-101038495D01*
X117205135Y-101092086D01*
X117322165Y-101174032D01*
X117322167Y-101174033D01*
X117322170Y-101174035D01*
X117536337Y-101273903D01*
X117764592Y-101335063D01*
X117935319Y-101350000D01*
X117999999Y-101355659D01*
X118000000Y-101355659D01*
X118000001Y-101355659D01*
X118064681Y-101350000D01*
X118235408Y-101335063D01*
X118463663Y-101273903D01*
X118677830Y-101174035D01*
X118871401Y-101038495D01*
X119038495Y-100871401D01*
X119168425Y-100685842D01*
X119223002Y-100642217D01*
X119292500Y-100635023D01*
X119354855Y-100666546D01*
X119371575Y-100685842D01*
X119501500Y-100871395D01*
X119501505Y-100871401D01*
X119668599Y-101038495D01*
X119745135Y-101092086D01*
X119862165Y-101174032D01*
X119862167Y-101174033D01*
X119862170Y-101174035D01*
X120076337Y-101273903D01*
X120304592Y-101335063D01*
X120475319Y-101350000D01*
X120539999Y-101355659D01*
X120540000Y-101355659D01*
X120540001Y-101355659D01*
X120604681Y-101350000D01*
X120775408Y-101335063D01*
X121003663Y-101273903D01*
X121217830Y-101174035D01*
X121411401Y-101038495D01*
X121578495Y-100871401D01*
X121708425Y-100685842D01*
X121763002Y-100642217D01*
X121832500Y-100635023D01*
X121894855Y-100666546D01*
X121911575Y-100685842D01*
X122041500Y-100871395D01*
X122041505Y-100871401D01*
X122208599Y-101038495D01*
X122285135Y-101092086D01*
X122402165Y-101174032D01*
X122402167Y-101174033D01*
X122402170Y-101174035D01*
X122616337Y-101273903D01*
X122844592Y-101335063D01*
X123015319Y-101350000D01*
X123079999Y-101355659D01*
X123080000Y-101355659D01*
X123080001Y-101355659D01*
X123144681Y-101350000D01*
X123315408Y-101335063D01*
X123543663Y-101273903D01*
X123757830Y-101174035D01*
X123951401Y-101038495D01*
X124118495Y-100871401D01*
X124248425Y-100685842D01*
X124303002Y-100642217D01*
X124372500Y-100635023D01*
X124434855Y-100666546D01*
X124451575Y-100685842D01*
X124581500Y-100871395D01*
X124581505Y-100871401D01*
X124748599Y-101038495D01*
X124825135Y-101092086D01*
X124942165Y-101174032D01*
X124942167Y-101174033D01*
X124942170Y-101174035D01*
X125156337Y-101273903D01*
X125384592Y-101335063D01*
X125555319Y-101350000D01*
X125619999Y-101355659D01*
X125620000Y-101355659D01*
X125620001Y-101355659D01*
X125684681Y-101350000D01*
X125855408Y-101335063D01*
X126083663Y-101273903D01*
X126297830Y-101174035D01*
X126491401Y-101038495D01*
X126658495Y-100871401D01*
X126788425Y-100685842D01*
X126843002Y-100642217D01*
X126912500Y-100635023D01*
X126974855Y-100666546D01*
X126991575Y-100685842D01*
X127121500Y-100871395D01*
X127121505Y-100871401D01*
X127288599Y-101038495D01*
X127365135Y-101092086D01*
X127482165Y-101174032D01*
X127482167Y-101174033D01*
X127482170Y-101174035D01*
X127696337Y-101273903D01*
X127924592Y-101335063D01*
X128095319Y-101350000D01*
X128159999Y-101355659D01*
X128160000Y-101355659D01*
X128160001Y-101355659D01*
X128224681Y-101350000D01*
X128395408Y-101335063D01*
X128623663Y-101273903D01*
X128837830Y-101174035D01*
X129031401Y-101038495D01*
X129153717Y-100916178D01*
X129215036Y-100882696D01*
X129284728Y-100887680D01*
X129340662Y-100929551D01*
X129357577Y-100960528D01*
X129406646Y-101092088D01*
X129406649Y-101092093D01*
X129492809Y-101207187D01*
X129492812Y-101207190D01*
X129607906Y-101293350D01*
X129607913Y-101293354D01*
X129742620Y-101343596D01*
X129742627Y-101343598D01*
X129802155Y-101349999D01*
X129802172Y-101350000D01*
X130450000Y-101350000D01*
X130450000Y-100433012D01*
X130507007Y-100465925D01*
X130634174Y-100500000D01*
X130765826Y-100500000D01*
X130892993Y-100465925D01*
X130950000Y-100433012D01*
X130950000Y-101350000D01*
X131597828Y-101350000D01*
X131597844Y-101349999D01*
X131657372Y-101343598D01*
X131657379Y-101343596D01*
X131792086Y-101293354D01*
X131792093Y-101293350D01*
X131907187Y-101207190D01*
X131907190Y-101207187D01*
X131993350Y-101092093D01*
X131993354Y-101092086D01*
X132043596Y-100957379D01*
X132043598Y-100957372D01*
X132049999Y-100897844D01*
X132050000Y-100897827D01*
X132050000Y-100250000D01*
X131133012Y-100250000D01*
X131165925Y-100192993D01*
X131200000Y-100065826D01*
X131200000Y-99934174D01*
X131165925Y-99807007D01*
X131133012Y-99750000D01*
X132050000Y-99750000D01*
X132050000Y-99102172D01*
X132049999Y-99102155D01*
X132043598Y-99042627D01*
X132043596Y-99042620D01*
X131993354Y-98907913D01*
X131993350Y-98907906D01*
X131907190Y-98792812D01*
X131907187Y-98792809D01*
X131792093Y-98706649D01*
X131792086Y-98706645D01*
X131657379Y-98656403D01*
X131657372Y-98656401D01*
X131597844Y-98650000D01*
X130950000Y-98650000D01*
X130950000Y-99566988D01*
X130892993Y-99534075D01*
X130765826Y-99500000D01*
X130634174Y-99500000D01*
X130507007Y-99534075D01*
X130450000Y-99566988D01*
X130450000Y-98650000D01*
X129802155Y-98650000D01*
X129742627Y-98656401D01*
X129742620Y-98656403D01*
X129607913Y-98706645D01*
X129607906Y-98706649D01*
X129492812Y-98792809D01*
X129492809Y-98792812D01*
X129406649Y-98907906D01*
X129406645Y-98907913D01*
X129357578Y-99039470D01*
X129315707Y-99095404D01*
X129250242Y-99119821D01*
X129181969Y-99104969D01*
X129153715Y-99083819D01*
X129109366Y-99039470D01*
X129031401Y-98961505D01*
X129031397Y-98961502D01*
X129031396Y-98961501D01*
X128837834Y-98825967D01*
X128837830Y-98825965D01*
X128766727Y-98792809D01*
X128623663Y-98726097D01*
X128623659Y-98726096D01*
X128623655Y-98726094D01*
X128395413Y-98664938D01*
X128395403Y-98664936D01*
X128160001Y-98644341D01*
X128159999Y-98644341D01*
X127924596Y-98664936D01*
X127924586Y-98664938D01*
X127696344Y-98726094D01*
X127696335Y-98726098D01*
X127482171Y-98825964D01*
X127482169Y-98825965D01*
X127288597Y-98961505D01*
X127121505Y-99128597D01*
X126991575Y-99314158D01*
X126936998Y-99357783D01*
X126867500Y-99364977D01*
X126805145Y-99333454D01*
X126788425Y-99314158D01*
X126658494Y-99128597D01*
X126491402Y-98961506D01*
X126491395Y-98961501D01*
X126297834Y-98825967D01*
X126297830Y-98825965D01*
X126226727Y-98792809D01*
X126083663Y-98726097D01*
X126083659Y-98726096D01*
X126083655Y-98726094D01*
X125855413Y-98664938D01*
X125855403Y-98664936D01*
X125620001Y-98644341D01*
X125619999Y-98644341D01*
X125384596Y-98664936D01*
X125384586Y-98664938D01*
X125156344Y-98726094D01*
X125156335Y-98726098D01*
X124942171Y-98825964D01*
X124942169Y-98825965D01*
X124748597Y-98961505D01*
X124581505Y-99128597D01*
X124451575Y-99314158D01*
X124396998Y-99357783D01*
X124327500Y-99364977D01*
X124265145Y-99333454D01*
X124248425Y-99314158D01*
X124118494Y-99128597D01*
X123951402Y-98961506D01*
X123951395Y-98961501D01*
X123757834Y-98825967D01*
X123757830Y-98825965D01*
X123686727Y-98792809D01*
X123543663Y-98726097D01*
X123543659Y-98726096D01*
X123543655Y-98726094D01*
X123315413Y-98664938D01*
X123315403Y-98664936D01*
X123080001Y-98644341D01*
X123079999Y-98644341D01*
X122844596Y-98664936D01*
X122844586Y-98664938D01*
X122616344Y-98726094D01*
X122616335Y-98726098D01*
X122402171Y-98825964D01*
X122402169Y-98825965D01*
X122208597Y-98961505D01*
X122041505Y-99128597D01*
X121911575Y-99314158D01*
X121856998Y-99357783D01*
X121787500Y-99364977D01*
X121725145Y-99333454D01*
X121708425Y-99314158D01*
X121578494Y-99128597D01*
X121411402Y-98961506D01*
X121411395Y-98961501D01*
X121217834Y-98825967D01*
X121217830Y-98825965D01*
X121146727Y-98792809D01*
X121003663Y-98726097D01*
X121003659Y-98726096D01*
X121003655Y-98726094D01*
X120775413Y-98664938D01*
X120775403Y-98664936D01*
X120540001Y-98644341D01*
X120539999Y-98644341D01*
X120304596Y-98664936D01*
X120304586Y-98664938D01*
X120076344Y-98726094D01*
X120076335Y-98726098D01*
X119862171Y-98825964D01*
X119862169Y-98825965D01*
X119668597Y-98961505D01*
X119501505Y-99128597D01*
X119371575Y-99314158D01*
X119316998Y-99357783D01*
X119247500Y-99364977D01*
X119185145Y-99333454D01*
X119168425Y-99314158D01*
X119038494Y-99128597D01*
X118871402Y-98961506D01*
X118871395Y-98961501D01*
X118677834Y-98825967D01*
X118677830Y-98825965D01*
X118606727Y-98792809D01*
X118463663Y-98726097D01*
X118463659Y-98726096D01*
X118463655Y-98726094D01*
X118235413Y-98664938D01*
X118235403Y-98664936D01*
X118000001Y-98644341D01*
X117999999Y-98644341D01*
X117764596Y-98664936D01*
X117764586Y-98664938D01*
X117536344Y-98726094D01*
X117536335Y-98726098D01*
X117322171Y-98825964D01*
X117322169Y-98825965D01*
X117128597Y-98961505D01*
X116961505Y-99128597D01*
X116825965Y-99322169D01*
X116825964Y-99322171D01*
X116726098Y-99536335D01*
X116726094Y-99536344D01*
X116664938Y-99764586D01*
X116664936Y-99764596D01*
X116644341Y-99999999D01*
X111500500Y-99999999D01*
X111500500Y-96624500D01*
X111520185Y-96557461D01*
X111572989Y-96511706D01*
X111624500Y-96500500D01*
X137375500Y-96500500D01*
X137442539Y-96520185D01*
G37*
%TD.AperFunction*%
%TD*%
M02*
